<mxfile host="app.diagrams.net" modified="2022-10-31T09:13:55.990Z" agent="5.0 (Windows)" etag="_1AGXBTbeJVHuWW2deP9" version="20.4.1" type="github">
  <diagram id="5RNuYGR2YpJge26w1gkb" name="Page-1">
    <mxGraphModel dx="914" dy="493" grid="1" gridSize="10" guides="1" tooltips="1" connect="1" arrows="1" fold="1" page="1" pageScale="1" pageWidth="850" pageHeight="1100" math="0" shadow="0">
      <root>
        <mxCell id="0" />
        <mxCell id="1" parent="0" />
        <mxCell id="yPScNcmfPyFlkdPF8bhE-5" style="edgeStyle=orthogonalEdgeStyle;rounded=0;orthogonalLoop=1;jettySize=auto;html=1;" edge="1" parent="1" source="yPScNcmfPyFlkdPF8bhE-1">
          <mxGeometry relative="1" as="geometry">
            <mxPoint x="180" y="210" as="targetPoint" />
          </mxGeometry>
        </mxCell>
        <mxCell id="yPScNcmfPyFlkdPF8bhE-1" value="Actor" style="shape=umlActor;verticalLabelPosition=bottom;verticalAlign=top;html=1;outlineConnect=0;" vertex="1" parent="1">
          <mxGeometry x="90" y="180" width="30" height="60" as="geometry" />
        </mxCell>
        <mxCell id="yPScNcmfPyFlkdPF8bhE-6" style="edgeStyle=orthogonalEdgeStyle;rounded=0;orthogonalLoop=1;jettySize=auto;html=1;" edge="1" parent="1" source="yPScNcmfPyFlkdPF8bhE-3">
          <mxGeometry relative="1" as="geometry">
            <mxPoint x="460" y="140" as="targetPoint" />
            <Array as="points">
              <mxPoint x="460" y="210" />
            </Array>
          </mxGeometry>
        </mxCell>
        <mxCell id="yPScNcmfPyFlkdPF8bhE-23" style="edgeStyle=orthogonalEdgeStyle;rounded=0;orthogonalLoop=1;jettySize=auto;html=1;fontSize=12;" edge="1" parent="1" source="yPScNcmfPyFlkdPF8bhE-3">
          <mxGeometry relative="1" as="geometry">
            <mxPoint x="480" y="310" as="targetPoint" />
            <Array as="points">
              <mxPoint x="210" y="440" />
            </Array>
          </mxGeometry>
        </mxCell>
        <mxCell id="yPScNcmfPyFlkdPF8bhE-3" value="Pick Number by Phone Auth" style="rounded=1;whiteSpace=wrap;html=1;" vertex="1" parent="1">
          <mxGeometry x="180" y="185" width="140" height="50" as="geometry" />
        </mxCell>
        <mxCell id="yPScNcmfPyFlkdPF8bhE-17" style="edgeStyle=orthogonalEdgeStyle;rounded=0;orthogonalLoop=1;jettySize=auto;html=1;fontSize=12;" edge="1" parent="1" source="yPScNcmfPyFlkdPF8bhE-7">
          <mxGeometry relative="1" as="geometry">
            <mxPoint x="590" y="100" as="targetPoint" />
          </mxGeometry>
        </mxCell>
        <mxCell id="yPScNcmfPyFlkdPF8bhE-7" value="Click Button Send OTP" style="rounded=1;whiteSpace=wrap;html=1;" vertex="1" parent="1">
          <mxGeometry x="400" y="70" width="120" height="60" as="geometry" />
        </mxCell>
        <mxCell id="yPScNcmfPyFlkdPF8bhE-22" style="edgeStyle=orthogonalEdgeStyle;rounded=0;orthogonalLoop=1;jettySize=auto;html=1;fontSize=12;" edge="1" parent="1" source="yPScNcmfPyFlkdPF8bhE-13">
          <mxGeometry relative="1" as="geometry">
            <mxPoint x="640" y="290" as="targetPoint" />
          </mxGeometry>
        </mxCell>
        <mxCell id="yPScNcmfPyFlkdPF8bhE-13" value="After Pick Number Automate Send Number To Backend to Request OTP From Backend" style="rounded=1;whiteSpace=wrap;html=1;fontSize=12;" vertex="1" parent="1">
          <mxGeometry x="390" y="250" width="200" height="50" as="geometry" />
        </mxCell>
        <mxCell id="yPScNcmfPyFlkdPF8bhE-18" style="edgeStyle=orthogonalEdgeStyle;rounded=0;orthogonalLoop=1;jettySize=auto;html=1;fontSize=12;" edge="1" parent="1" source="yPScNcmfPyFlkdPF8bhE-16">
          <mxGeometry relative="1" as="geometry">
            <mxPoint x="730" y="250" as="targetPoint" />
            <Array as="points">
              <mxPoint x="740" y="230" />
            </Array>
          </mxGeometry>
        </mxCell>
        <mxCell id="yPScNcmfPyFlkdPF8bhE-16" value="Send To Backend, to send OTP from Number Selected" style="rounded=1;whiteSpace=wrap;html=1;fontSize=12;" vertex="1" parent="1">
          <mxGeometry x="600" y="70" width="160" height="60" as="geometry" />
        </mxCell>
        <mxCell id="yPScNcmfPyFlkdPF8bhE-19" value="If Sms Receive, Automate Add To Input" style="rounded=1;whiteSpace=wrap;html=1;fontSize=12;" vertex="1" parent="1">
          <mxGeometry x="650" y="260" width="180" height="50" as="geometry" />
        </mxCell>
      </root>
    </mxGraphModel>
  </diagram>
</mxfile>
